<svg width="78" height="71" viewBox="0 0 78 71" fill="none" xmlns="http://www.w3.org/2000/svg">
<path d="M39 0.144287C29.8977 0.144644 21.0924 3.20782 14.1599 8.78573C7.22729 14.3636 2.61976 22.0923 1.16168 30.5888C-0.296396 39.0853 1.49014 47.7952 6.20162 55.16C10.9131 62.5249 18.2421 68.064 26.8772 70.7864C28.7938 71.1037 29.5126 70.0162 29.5126 69.0646C29.5126 68.2037 29.4646 65.3489 29.4646 62.313C19.8333 63.9896 17.3417 60.0928 16.575 58.0538C15.7243 56.0706 14.3757 54.3132 12.6458 52.9333C11.3042 52.2537 9.3875 50.5771 12.5979 50.5319C13.8237 50.6576 14.9995 51.061 16.0254 51.7078C17.0514 52.3546 17.8974 53.2257 18.4917 54.2474C19.016 55.138 19.7209 55.9221 20.5662 56.5547C21.4115 57.1872 22.3805 57.6559 23.4176 57.9337C24.4548 58.2115 25.5397 58.293 26.6102 58.1737C27.6807 58.0543 28.7158 57.7363 29.6562 57.238C29.8221 55.3951 30.6906 53.6721 32.1 52.3897C23.5708 51.4835 14.6583 48.3568 14.6583 34.4913C14.6045 30.8885 16.0103 27.4029 18.5875 24.7491C17.4156 21.6179 17.5527 18.1816 18.9708 15.1428C18.9708 15.1428 22.1811 14.1912 29.5125 18.8585C35.7849 17.2271 42.4067 17.2271 48.6792 18.8585C56.0103 14.146 59.2208 15.1428 59.2208 15.1428C60.6392 18.1816 60.7763 21.6179 59.6042 24.7491C62.1891 27.3983 63.5962 30.887 63.5333 34.4913C63.5333 48.4021 54.5728 51.4835 46.0438 52.3897C46.9586 53.2665 47.6632 54.3193 48.1096 55.4764C48.5561 56.6336 48.734 57.868 48.6313 59.096C48.6313 63.9445 48.5833 67.8412 48.5833 69.0647C48.5833 70.0163 49.3021 71.1491 51.2187 70.7866C59.8386 68.042 67.1465 62.4898 71.8379 55.1212C76.5293 47.7526 78.2989 39.0472 76.8307 30.5589C75.3625 22.0706 70.7522 14.352 63.8226 8.78089C56.8931 3.20977 48.0954 0.148764 39 0.144287Z" fill="black"/>
</svg>
