<svg width="79" height="73" viewBox="0 0 79 73" fill="none" xmlns="http://www.w3.org/2000/svg">
<path d="M58.4375 25.3716C55.1922 25.3703 51.9971 26.1177 49.1378 27.5469C48.8769 26.9071 48.4131 26.3563 47.808 25.9678C47.2028 25.5792 46.4851 25.3713 45.75 25.3716H31.25C30.7739 25.3714 30.3024 25.4585 29.8624 25.628C29.4225 25.7975 29.0228 26.0461 28.6861 26.3596C28.3495 26.673 28.0825 27.0452 27.9004 27.4548C27.7183 27.8644 27.6247 28.3033 27.625 28.7466V69.2466C27.6247 69.6899 27.7183 70.1289 27.9004 70.5385C28.0824 70.9481 28.3495 71.3202 28.6861 71.6337C29.0228 71.9471 29.4225 72.1957 29.8624 72.3652C30.3024 72.5348 30.7739 72.6219 31.25 72.6216H45.75C46.2261 72.6219 46.6976 72.5348 47.1375 72.3652C47.5775 72.1957 47.9772 71.9471 48.3139 71.6337C48.6505 71.3202 48.9175 70.9481 49.0996 70.5385C49.2817 70.1289 49.3753 69.6899 49.375 69.2466V50.6841C49.375 49.789 49.7569 48.9306 50.4367 48.2976C51.1166 47.6647 52.0386 47.3091 53 47.3091C53.9614 47.3091 54.8834 47.6647 55.5633 48.2976C56.2431 48.9306 56.625 49.789 56.625 50.6841V69.2466C56.6247 69.6899 56.7183 70.1289 56.9004 70.5385C57.0824 70.9481 57.3494 71.3202 57.6861 71.6337C58.0228 71.9471 58.4225 72.1957 58.8624 72.3652C59.3024 72.5348 59.7739 72.6219 60.25 72.6216H74.75C75.2261 72.6219 75.6976 72.5348 76.1376 72.3652C76.5775 72.1957 76.9772 71.9471 77.3139 71.6337C77.6505 71.3202 77.9175 70.9481 78.0996 70.5385C78.2817 70.1289 78.3753 69.6899 78.375 69.2466V43.9341C78.3684 39.0129 76.2658 34.295 72.5282 30.8152C68.7906 27.3354 63.7232 25.3777 58.4375 25.3716ZM71.125 65.8716H63.875V50.6841C63.875 47.9988 62.7292 45.4235 60.6898 43.5247C58.6503 41.6259 55.8842 40.5591 53 40.5591C50.1158 40.5591 47.3497 41.6259 45.3102 43.5247C43.2707 45.4235 42.125 47.9988 42.125 50.6841V65.8716H34.875V32.1216H42.125V34.4947C42.1254 35.194 42.3591 35.8759 42.7936 36.4463C43.2282 37.0167 43.8422 37.4474 44.551 37.6789C45.2597 37.9104 46.0282 37.9314 46.7502 37.7388C47.4723 37.5463 48.1124 37.1498 48.582 36.6041C50.2088 34.6804 52.4402 33.2778 54.9647 32.592C57.4891 31.9062 60.1806 31.9715 62.6632 32.7788C65.1459 33.586 67.2958 35.095 68.8128 37.0949C70.3298 39.0948 71.1382 41.4858 71.125 43.9341V65.8716ZM20.375 25.3716H5.875C5.39888 25.3714 4.92738 25.4585 4.48745 25.628C4.04752 25.7975 3.6478 26.0461 3.31113 26.3596C2.97447 26.673 2.70746 27.0452 2.52538 27.4548C2.34331 27.8644 2.24973 28.3033 2.25 28.7466V69.2466C2.24972 69.6899 2.3433 70.1289 2.52537 70.5385C2.70745 70.9481 2.97445 71.3202 3.31112 71.6337C3.64779 71.9471 4.04752 72.1957 4.48745 72.3652C4.92738 72.5348 5.39888 72.6219 5.875 72.6216H20.375C20.8511 72.6219 21.3226 72.5348 21.7626 72.3652C22.2025 72.1957 22.6022 71.9471 22.9389 71.6337C23.2755 71.3202 23.5425 70.9481 23.7246 70.5385C23.9067 70.1289 24.0003 69.6899 24 69.2466V28.7466C24.0003 28.3033 23.9067 27.8644 23.7246 27.4548C23.5425 27.0452 23.2755 26.673 22.9389 26.3596C22.6022 26.0461 22.2025 25.7975 21.7625 25.628C21.3226 25.4585 20.8511 25.3714 20.375 25.3716ZM16.75 65.8716H9.5V32.1216H16.75V65.8716ZM13.1781 0.204249C11.5917 0.115836 10.0025 0.328777 8.50721 0.830124C7.01193 1.33147 5.64181 2.11075 4.48016 3.12056C3.31852 4.13037 2.38962 5.34962 1.74996 6.70416C1.11031 8.0587 0.773259 9.52021 0.759316 10.9998C0.745373 12.4795 1.05483 13.9462 1.66886 15.311C2.28289 16.6758 3.18867 17.91 4.3311 18.9387C5.47354 19.9673 6.82877 20.7688 8.31437 21.2945C9.79996 21.8202 11.3849 22.0591 12.9728 21.9966H13.0754C14.666 22.0846 16.2592 21.8697 17.7577 21.365C19.2561 20.8603 20.6282 20.0765 21.7903 19.0614C22.9523 18.0463 23.8799 16.8213 24.5162 15.4612C25.1526 14.1011 25.4844 12.6345 25.4914 11.1509C25.4984 9.66739 25.1804 8.19811 24.5569 6.83285C23.9333 5.4676 23.0174 4.23505 21.8649 3.21052C20.7125 2.18598 19.3478 1.39098 17.8542 0.874092C16.3606 0.357202 14.7695 0.129279 13.1781 0.204249H13.1781ZM13.0754 15.2466H12.9728C12.3459 15.3175 11.71 15.2628 11.1077 15.0861C10.5054 14.9094 9.9506 14.6148 9.48058 14.2222C9.01056 13.8295 8.63615 13.3479 8.38246 12.8095C8.12877 12.271 8.00166 11.6884 8.00965 11.1005C8.00965 8.58238 10.0381 6.95421 13.1781 6.95421C13.8114 6.87562 14.4554 6.92428 15.0668 7.09692C15.6782 7.26957 16.2427 7.56219 16.7224 7.95508C17.2021 8.34797 17.5858 8.832 17.8476 9.37457C18.1094 9.91714 18.2434 10.5057 18.2403 11.1005C18.2403 13.6185 16.2119 15.2466 13.0754 15.2466Z" fill="black"/>
</svg>
