<svg width="75" height="73" viewBox="0 0 75 73" fill="none" xmlns="http://www.w3.org/2000/svg">
<path d="M31.5049 64.4888C31.5048 64.006 31.3878 63.5292 31.1621 63.0921C30.9365 62.655 30.6078 62.2683 30.1992 61.9594C29.7906 61.6505 29.3123 61.427 28.798 61.3047C28.2837 61.1824 27.746 61.1643 27.2232 61.2517C22.4778 62.0425 16.4863 62.1614 14.8932 58.0983C13.5042 54.9515 11.2032 52.2046 8.23444 50.1489C8.02261 50.0443 7.82073 49.9239 7.63088 49.7889C7.37105 49.1665 6.90954 48.6303 6.30725 48.251C5.70496 47.8716 4.99018 47.667 4.2572 47.6641H4.23951C3.28105 47.6638 2.3615 48.0083 1.68211 48.6222C1.00273 49.2361 0.61885 50.0694 0.614507 50.9397C0.600333 53.6238 3.55438 55.3436 4.75281 55.9254C6.16599 57.2147 7.30173 58.7323 8.10169 60.4C9.42213 63.7688 13.2595 68.8799 24.2903 68.221C24.2939 68.3367 24.2974 68.446 24.2991 68.5457L24.315 69.4265C24.315 70.2995 24.697 71.1367 25.3768 71.754C26.0566 72.3713 26.9786 72.7181 27.94 72.7181C28.9015 72.7181 29.8235 72.3713 30.5033 71.754C31.1831 71.1367 31.565 70.2995 31.565 69.4265L31.5474 68.3785C31.5297 67.7547 31.5049 66.8514 31.5049 64.4888ZM70.1727 14.699C70.2878 14.2875 70.4011 13.8311 70.5002 13.3168C71.0865 9.64849 70.5754 5.90456 69.0205 2.47731C68.8243 2.03051 68.5228 1.62808 68.1372 1.29824C67.7517 0.968403 67.2913 0.719134 66.7885 0.56791C65.498 0.172515 60.7332 -0.605405 51.6212 4.68249C44.0469 3.06396 36.1622 3.06396 28.5879 4.68249C19.513 -0.527952 14.7729 0.179098 13.4949 0.551978C12.9797 0.697076 12.5067 0.945025 12.1107 1.27765C11.7147 1.61028 11.4057 2.01915 11.2063 2.47431C9.61963 5.96736 9.11408 9.78766 9.74425 13.5226C9.83277 13.9437 9.92833 14.3327 10.0275 14.6895C7.02442 18.3216 5.42485 22.7519 5.47676 27.2936C5.46697 28.3069 5.51838 29.3199 5.63075 30.3281C6.8415 45.4781 17.7165 50.0267 25.2939 51.5889C25.1364 52.0004 24.993 52.4408 24.8655 52.9069C24.6384 53.7538 24.7904 54.648 25.2882 55.3933C25.786 56.1386 26.589 56.6743 27.5211 56.8828C28.4532 57.0913 29.4383 56.9556 30.2604 56.5056C31.0825 56.0555 31.6746 55.3278 31.9067 54.482C32.1373 53.3852 32.7285 52.3777 33.6024 51.5921C34.1307 51.1721 34.5133 50.6217 34.7035 50.0078C34.8937 49.394 34.8833 48.7432 34.6737 48.1346C34.464 47.526 34.0641 46.9859 33.5226 46.5799C32.981 46.1739 32.3213 45.9195 31.6235 45.8478C19.1024 44.5491 13.6666 39.917 12.8489 29.7238C12.7583 28.9164 12.7175 28.1051 12.7268 27.2936C12.6686 24.0568 13.8463 20.9014 16.0597 18.3637C16.2821 18.0991 16.519 17.8448 16.7695 17.6018C17.2133 17.1509 17.5117 16.5976 17.6319 16.0028C17.7521 15.4079 17.6895 14.7945 17.451 14.2298C17.2064 13.6358 17.0181 13.0238 16.8881 12.4007C16.5928 10.6289 16.6897 8.82134 17.173 7.0839C20.3236 7.89191 23.2888 9.20716 25.9274 10.967C26.3638 11.2309 26.8575 11.4065 27.3751 11.482C27.8928 11.5574 28.4222 11.5309 28.9276 11.4042C36.2541 9.59873 43.9783 9.59986 51.3042 11.4075C51.8123 11.534 52.3446 11.559 52.8643 11.4808C53.3841 11.4026 53.879 11.2229 54.315 10.9543C56.9412 9.1871 59.894 7.86009 63.0341 7.03577C63.5154 8.73149 63.623 10.4968 63.3509 12.2304C63.2196 12.9136 63.0145 13.5833 62.7385 14.2299C62.4999 14.7945 62.4373 15.408 62.5576 16.0028C62.6778 16.5977 62.9762 17.1509 63.42 17.6019C63.6996 17.888 63.9793 18.1966 64.2306 18.4859C66.4284 20.9807 67.5862 24.0997 67.5 27.2936C67.5066 28.1481 67.4611 29.0023 67.3637 29.8523C66.5654 39.9105 61.1085 44.5459 48.5289 45.8477C47.831 45.9199 47.1711 46.1747 46.6297 46.5811C46.0882 46.9875 45.6884 47.528 45.479 48.1369C45.2695 48.7457 45.2594 49.3967 45.4499 50.0107C45.6404 50.6247 46.0232 51.1752 46.5518 51.5953C47.4531 52.4019 48.0456 53.4497 48.2422 54.5848C48.4871 55.466 48.5997 56.3732 48.5767 57.2818V64.9646C48.5412 67.0957 48.5412 68.6933 48.5412 69.4263C48.5412 70.2993 48.9232 71.1365 49.603 71.7538C50.2828 72.3711 51.2048 72.7179 52.1662 72.7179C53.1277 72.7179 54.0497 72.3711 54.7295 71.7538C55.4093 71.1365 55.7912 70.2993 55.7912 69.4263C55.7912 68.7126 55.7912 67.1472 55.8267 65.016V57.2818C55.8558 55.8263 55.6671 54.374 55.2656 52.9647C55.1507 52.5021 55.0101 52.045 54.8443 51.5954C60.3588 50.7635 65.3694 48.1817 68.984 44.3096C72.5987 40.4375 74.5829 35.5263 74.5835 30.4503C74.703 29.4016 74.7586 28.3478 74.75 27.2936C74.8305 22.747 73.2175 18.3091 70.1727 14.6991L70.1727 14.699Z" fill="black"/>
</svg>
