<svg width="90" height="80" viewBox="0 0 90 80" fill="none" xmlns="http://www.w3.org/2000/svg">
<path d="M83.115 1.00067e-05H6.88499C6.02809 -0.0105685 5.17724 0.129 4.38103 0.410745C3.58483 0.69249 2.85885 1.11089 2.24458 1.64206C1.6303 2.17322 1.13976 2.80675 0.800953 3.50645C0.46215 4.20615 0.281727 4.95832 0.269989 5.72001V74.28C0.281727 75.0417 0.46215 75.7939 0.800953 76.4936C1.13976 77.1933 1.6303 77.8268 2.24458 78.358C2.85885 78.8891 3.58483 79.3075 4.38103 79.5893C5.17724 79.871 6.02809 80.0106 6.88499 80H83.115C83.9719 80.0106 84.8227 79.871 85.6189 79.5893C86.4151 79.3075 87.1411 78.8891 87.7554 78.358C88.3697 77.8268 88.8602 77.1933 89.199 76.4936C89.5378 75.7939 89.7182 75.0417 89.73 74.28V5.72001C89.7182 4.95832 89.5378 4.20615 89.199 3.50645C88.8602 2.80675 88.3697 2.17322 87.7554 1.64206C87.1411 1.11089 86.4151 0.69249 85.6189 0.410745C84.8227 0.129 83.9719 -0.0105685 83.115 1.00067e-05ZM27.405 66.96H13.905V30.96H27.405V66.96ZM20.655 25.92C18.7932 25.92 17.0076 25.2626 15.6911 24.0924C14.3746 22.9221 13.635 21.335 13.635 19.68C13.635 18.0251 14.3746 16.4379 15.6911 15.2677C17.0076 14.0974 18.7932 13.44 20.655 13.44C21.6436 13.3403 22.6448 13.4274 23.5929 13.6955C24.5411 13.9637 25.4148 14.4068 26.1569 14.9959C26.8991 15.5849 27.4929 16.3067 27.8994 17.1139C28.306 17.9212 28.5161 18.7956 28.5161 19.68C28.5161 20.5644 28.306 21.4389 27.8994 22.2461C27.4929 23.0533 26.8991 23.7751 26.1569 24.3642C25.4148 24.9533 24.5411 25.3964 23.5929 25.6645C22.6448 25.9326 21.6436 26.0197 20.655 25.92ZM76.095 66.96H62.595V47.64C62.595 42.8 60.66 39.64 55.755 39.64C54.237 39.6499 52.7588 40.0731 51.5197 40.8527C50.2807 41.6323 49.3402 42.7307 48.825 44C48.4728 44.9402 48.3202 45.9303 48.375 46.92V66.92H34.875C34.875 66.92 34.875 34.2 34.875 30.92H48.375V36C49.6014 34.1084 51.3851 32.5501 53.534 31.4928C55.6829 30.4355 58.1155 29.9194 60.57 30C69.57 30 76.095 35.16 76.095 46.24V66.96Z" fill="black"/>
</svg>
